# xmcd CD database file
#
# Track frame offsets:
#	150
#	36023
#	88766
#	117751
#	163514
#	205628
#
# Disc length: 3244 seconds
#
# Revision: 0
# Processed by: cddbd v1.5.1PL0 Copyright (c) Steve Scherf et al.
# Submitted via: CDex 1.51
#
DISCID=410caa06
DTITLE=UnLokked - A Hot Night in Burwood
DYEAR=2000
DGENRE=Jazz
TTITLE0=Toys
TTITLE1=le Grand B3
TTITLE2=Heritage
TTITLE3=Witch Doctor
TTITLE4=Melbourne Weather
TTITLE5=Displacement Blues
EXTD=YEAR: 2000
EXTT0=
EXTT1=
EXTT2=
EXTT3=
EXTT4=
EXTT5=
PLAYORDER=
